<svg id="Layer_1" data-name="Layer 1" xmlns="http://www.w3.org/2000/svg" xmlns:xlink="http://www.w3.org/1999/xlink" viewBox="0 0 218.75 40.51"><defs><style>.cls-1{fill:url(#New_Gradient_Swatch_2);}</style><linearGradient id="New_Gradient_Swatch_2" x1="109.37" x2="109.37" y2="40.51" gradientUnits="userSpaceOnUse"><stop offset="0" stop-color="#04feb2"/><stop offset="1" stop-color="#04fe42"/></linearGradient></defs><title>Artboard 1</title><path class="cls-1" d="M208.85,24.68c-1.07,4.22-4.5,6.35-8.77,6.35-6-.06-9.78-5.12-9.78-10.91,0-6.52,3.88-11,9.78-11,4.22,0,7.2,1.8,8.6,5.79h9.9c-1.52-10.51-10.35-15-18.5-15-10,0-20.13,6.75-20.19,20.13a24.44,24.44,0,0,0,.27,3.55L169.2,0h-4.33L153.45,24.77V17.6H140.8V9h14.28V0H130.56V14.34A20.78,20.78,0,0,0,94.88,7.43V0H56.31V26.09c0,3.21-3,4.78-6,4.78s-6-1.57-6-4.78V0H34.72V26.26c0,.44,0,.86.06,1.28L22,0H17.71L0,38.4v1.46H9.84l2.31-4.95H27.66L30,39.87h9.84V38.4l-1.43-3.1a16.9,16.9,0,0,0,12,4.62c8.1,0,15.58-5,15.58-13.66V9h9.39V39.36h10V9h8.42a20.77,20.77,0,0,0,2.53,26.59l7.55-10.22h0v15l.09,0,11.09-15h0V40.51l11.18-15.14h0v9.36a20.77,20.77,0,0,0,4.35-7.5V39.36H140.8V26.6h11.81L147.16,38.4v1.46H157l2.3-4.95h15.52l2.31,4.95H187V38.4l-2.12-4.58a20.4,20.4,0,0,0,15.23,6.38c8.38,0,17.21-4.39,18.67-15.52ZM15.41,26.31,19.85,16,24.4,26.31Zm147.16,0L167,16l4.55,10.35Z"/></svg>