<svg id="Layer_1" data-name="Layer 1" xmlns="http://www.w3.org/2000/svg" xmlns:xlink="http://www.w3.org/1999/xlink" viewBox="0 0 268.1 270.55"><defs><style>.cls-1,.cls-6{fill:#fff;}.cls-1{opacity:0.05;}.cls-2{fill:#049542;}.cls-3{fill:#04fe42;}.cls-4{fill:#04feb2;}.cls-5{fill:url(#New_Gradient_Swatch_3);}.cls-7{fill:none;}</style><linearGradient id="New_Gradient_Swatch_3" x1="63.04" y1="160.25" x2="63.04" y2="283.04" gradientTransform="translate(12.26 -87.42) rotate(-18.5)" gradientUnits="userSpaceOnUse"><stop offset="0" stop-color="#04feb2"/><stop offset="1" stop-color="#04fe42"/></linearGradient></defs><title>Artboard 1</title><path class="cls-1" d="M134.52,3.43c-71.82,0-130,59.74-130,133.44a134.75,134.75,0,0,0,38.79,95l47.24-65.63h.16v96.22l.57.2,69.4-96.42h.16v97.21l70-97.21h.16v60.12a134.91,134.91,0,0,0,33.63-89.55C264.56,63.17,206.34,3.43,134.52,3.43Z"/><path class="cls-2" d="M230.09,182.82a5.64,5.64,0,0,1,1.47-3c.2-.26.36-.55.53-.83a7.89,7.89,0,0,1-2.77-6.67,5.81,5.81,0,0,1,1.64-3,6,6,0,0,0-1-.32c-.9-.19-3.33-.1-3.37-1.49a1.7,1.7,0,0,1,.55-1.36h0a3.89,3.89,0,0,1,2.39-.76h0c.34,0,.67,0,1,0h.1l.41,0a6.55,6.55,0,0,1,2.4.67,3.89,3.89,0,0,0,.07-3.86h0c.71-3.91,11.92-8.5,18,.17,2.35,6,.21,10.69-3.18,13.91a9.49,9.49,0,0,1,.32,1.08c.26,1.11-.07,3.75-1.85,3.09-.69-.26-1-1.25-1.28-2a19.86,19.86,0,0,1-2.51,1.36,8.42,8.42,0,0,1-.36,3,4.58,4.58,0,0,1-1.92,2.76c-.88.51-2.65.33-2.64-1,0-1.09.8-1.94.85-3.06,0-.15,0-.31,0-.46a6.48,6.48,0,0,1-1.91,0c-.43-.07-.84-.17-1.23-.27-.23.33-.48.65-.74,1-.78.93-2.16,2.41-3.51,2.34A1.4,1.4,0,0,1,230.09,182.82Z"/><path class="cls-3" d="M250.62,173.52c.13-.21.26-.42.38-.64C250.88,173.1,250.76,173.31,250.62,173.52Z"/><path class="cls-3" d="M250.51,173.69l-.39.56Z"/><path class="cls-3" d="M251,172.83c.13-.24.26-.48.37-.73C251.29,172.35,251.16,172.59,251,172.83Z"/><path class="cls-3" d="M251.47,172q.14-.32.27-.65Q251.61,171.64,251.47,172Z"/><path class="cls-3" d="M229.64,171.17a6,6,0,0,1,.44-.74A6,6,0,0,0,229.64,171.17Z"/><path class="cls-3" d="M230.6,165.37l.4,0Z"/><path class="cls-3" d="M226.88,166.37a1.74,1.74,0,0,1,.22-.25,3.89,3.89,0,0,1,2.39-.76A3.4,3.4,0,0,0,226.88,166.37Z"/><path class="cls-3" d="M233.95,164.2v0Z"/><path class="cls-3" d="M229.52,165.36h0c.34,0,.67,0,1,0C230.2,165.35,229.86,165.34,229.52,165.36Z"/><path class="cls-3" d="M251.79,171.17a11.26,11.26,0,0,0,.46-1.63A11.28,11.28,0,0,1,251.79,171.17Z"/><path class="cls-3" d="M252.18,164.61a12.62,12.62,0,0,1,.28,2A12.62,12.62,0,0,0,252.18,164.61Z"/><path class="cls-3" d="M252.46,166.69q0,.44,0,.86C252.48,167.27,252.48,167,252.46,166.69Z"/><path class="cls-3" d="M251.49,162.38c.14.36.27.72.38,1.07C251.76,163.1,251.64,162.74,251.49,162.38Z"/><path class="cls-3" d="M251.9,163.55q.14.47.25.94Q252,164,251.9,163.55Z"/><path class="cls-3" d="M233.48,162.21h0c.71-3.91,11.92-8.5,18,.17a26.2,26.2,0,0,0-6.1-8.67c-11-9.89-36-8.25-36-8.25l-1,5.73s13.29,1.85,21.73,7.65A10.06,10.06,0,0,1,233.48,162.21Z"/><path class="cls-3" d="M252.28,169.4c.05-.27.09-.54.13-.81C252.38,168.86,252.33,169.13,252.28,169.4Z"/><path class="cls-3" d="M252.41,168.54q.05-.45.06-.92Q252.46,168.09,252.41,168.54Z"/><path class="cls-3" d="M226.61,167a1.71,1.71,0,0,1,.09-.29A1.73,1.73,0,0,0,226.61,167Z"/><path class="cls-3" d="M235.8,180.82c.39.11.8.2,1.23.27-.43-.07-.84-.17-1.23-.27Z"/><path class="cls-3" d="M246.8,180.46a1.2,1.2,0,0,1-.45-.32A1.2,1.2,0,0,0,246.8,180.46Z"/><path class="cls-3" d="M246.16,179.91a5.19,5.19,0,0,1-.54-1.15A5.19,5.19,0,0,0,246.16,179.91Z"/><path class="cls-3" d="M230.09,182.82a2.63,2.63,0,0,1,.14-.82,2.63,2.63,0,0,0-.14.82,1.18,1.18,0,0,0,.46.94A1.18,1.18,0,0,1,230.09,182.82Z"/><path class="cls-3" d="M249,175.58l.41-.46Z"/><path class="cls-3" d="M229.37,171.92a2.46,2.46,0,0,0-.05.37,8.66,8.66,0,0,0,0,.9,8.66,8.66,0,0,1,0-.9A2.46,2.46,0,0,1,229.37,171.92Z"/><path class="cls-3" d="M248.32,176.3l.55-.56Z"/><path class="cls-3" d="M249.56,175q.25-.3.49-.62Q249.81,174.67,249.56,175Z"/><path class="cls-3" d="M232.08,179c-.17.28-.33.56-.53.83l-.5.68.5-.68C231.75,179.52,231.91,179.24,232.08,179Z"/><path class="cls-3" d="M230.24,176.7a7.61,7.61,0,0,0,1.11,1.56A7.61,7.61,0,0,1,230.24,176.7Z"/><path class="cls-3" d="M233.8,165.09l0,.12Z"/><path class="cls-3" d="M233.64,165.53l0,.11Z"/><path class="cls-3" d="M230.38,181.6a6,6,0,0,1,.43-.77A6,6,0,0,0,230.38,181.6Z"/><path class="cls-3" d="M226.56,167.48a2.11,2.11,0,0,1,0-.41A2.14,2.14,0,0,0,226.56,167.48Z"/><path class="cls-3" d="M233.9,164.65l0,.11Z"/><path class="cls-3" d="M226.72,166.66a1.6,1.6,0,0,1,.15-.27A1.59,1.59,0,0,0,226.72,166.66Z"/><path class="cls-2" d="M238.59,153.56a9.81,9.81,0,0,1,6.63,0l.18.15c.89.89,1.67,1.76,2.38,2.61l0,0c-2-2.37-5.43-3.13-8.88-2a8.39,8.39,0,0,0-5.69,7.33,7.41,7.41,0,0,0-.75-.93A9.26,9.26,0,0,1,238.59,153.56Z"/><path class="cls-2" d="M235.45,149.4a8.08,8.08,0,0,1,1.85-.38q1.23.47,2.4,1a7.18,7.18,0,0,0-8.53,9.21c.07.19.15.38.23.57-.36-.3-.77-.61-1.22-.93A8,8,0,0,1,235.45,149.4Z"/><path class="cls-2" d="M230.64,147.29l.45-.13q1.13.26,2.26.57a7.17,7.17,0,0,0-7.14,8.84l-1-.46A8,8,0,0,1,230.64,147.29Z"/><path class="cls-2" d="M225.42,146.14l1.5.22v0a7.17,7.17,0,0,0-4.72,8.42l-.94-.35A8,8,0,0,1,225.42,146.14Z"/><path class="cls-2" d="M219.92,145.58l1.32.1a7.16,7.16,0,0,0-3.2,7.72l-.93-.27A8,8,0,0,1,219.92,145.58Z"/><path class="cls-2" d="M214.28,145.36l1.17,0a7.15,7.15,0,0,0-2.13,6.77l-.9-.2A8,8,0,0,1,214.28,145.36Z"/><path class="cls-2" d="M55,130.35,36.19,74.07a5.42,5.42,0,1,0-4.88,1.63L50.15,132c-6.24,4-8.53,14.34-5,24.75C49,168.36,58.6,175.62,66.57,173S77.84,158.7,74,147.08C70.47,136.67,62.4,129.77,55,130.35Z"/><path class="cls-2" d="M233.08,70.77,214.25,14.49a5.42,5.42,0,1,0-4.88,1.63L228.21,72.4c-6.24,4-8.53,14.34-5,24.75,3.89,11.62,13.5,18.88,21.47,16.22S255.9,99.12,252,87.5C248.53,77.09,240.46,70.18,233.08,70.77Z"/><path class="cls-2" d="M143.19,226.54a6.65,6.65,0,0,0,1.24,1.81c1.27,1.11,3.12,2.12,12.11-.73S169,223.06,169,221.75a9.58,9.58,0,0,0-1.4-2.91C157.05,212.3,148.23,220,143.19,226.54Z"/><path class="cls-3" d="M161.69,207.78a42.18,42.18,0,0,1-2.14-14.39l-22.75-2.53a38,38,0,0,0,.77,20.5c2.58,8,4.37,12.74,5.65,15.16,5-6.51,13.85-14.2,24.39-7.66a9.58,9.58,0,0,1,1.4,2.91c0,1.15-2.67,2.59-9.35,4.85,6.7-2.26,9.35-3.71,9.39-4.86C169.09,220.43,163.32,212.63,161.69,207.78Z"/><path class="cls-2" d="M216.21,202.11a6.65,6.65,0,0,1,.1,2.19c-.35,1.65-1.21,3.58-10.11,6.71s-12.66,3.84-13.49,2.82a9.58,9.58,0,0,1-.63-3.16C196.57,199.07,208.27,199.94,216.21,202.11Z"/><path class="cls-3" d="M192.71,213.82a9.58,9.58,0,0,1-.63-3.16c4.48-11.57,16.15-10.73,24.09-8.56-.44-2.7-1.84-7.54-4.61-15.5a38,38,0,0,0-11.72-16.83l-16.65,15.71a42.18,42.18,0,0,1,7,12.78c1.62,4.85,1.71,14.56,2.53,15.58s3.71.46,10.42-1.77C196.41,214.28,193.44,214.71,192.71,213.82Z"/><path class="cls-2" d="M152.13,212.94c6.25-2.27,10.67-.31,12.49.82q-.41-.71-.8-1.43c-2.37-1.12-6.47-2.17-12-.19a19,19,0,0,0-10.71,9.53l.44,1.12A18.26,18.26,0,0,1,152.13,212.94Z"/><path class="cls-2" d="M150.18,207.3c6.24-1.28,10.2.36,11.82,1.29-.11-.28-.22-.55-.3-.81s-.08-.25-.12-.38c-2.07-1-5.91-2.09-11.57-.93a18.24,18.24,0,0,0-11.59,7.45l.35,1A17.47,17.47,0,0,1,150.18,207.3Z"/><path class="cls-2" d="M148.35,201.17a16.77,16.77,0,0,1,12.3,2.87c-.1-.41-.18-.83-.26-1.24a17.81,17.81,0,0,0-12.15-2.48c-6.84.87-10.62,3.91-12,5.27.05.34.12.69.18,1C137.12,205.85,140.86,202.12,148.35,201.17Z"/><path class="cls-2" d="M148.77,196.05a29.66,29.66,0,0,1,11,3c0-.34-.08-.68-.11-1a31,31,0,0,0-10.84-2.8,23,23,0,0,0-13,2.83c0,.33,0,.66,0,1A22.36,22.36,0,0,1,148.77,196.05Z"/><path class="cls-2" d="M200.89,196.63c-6.36,1.95-8.71,6.17-9.48,8.17q-.1-.82-.22-1.63c1.22-2.32,3.86-5.63,9.45-7.36A19,19,0,0,1,214.93,197q.18.61.33,1.16A18.26,18.26,0,0,0,200.89,196.63Z"/><path class="cls-2" d="M199.06,190.94c-5.75,2.73-7.93,6.43-8.67,8.14-.08-.29-.16-.57-.25-.83l-.13-.37c1.06-2,3.46-5.23,8.68-7.71a18.24,18.24,0,0,1,13.74-1l.35,1A17.47,17.47,0,0,0,199.06,190.94Z"/><path class="cls-2" d="M196.82,184.95a16.77,16.77,0,0,0-8.09,9.7c-.17-.39-.36-.77-.54-1.15a17.81,17.81,0,0,1,8.21-9.29c6-3.43,10.83-3.27,12.77-3,.16.31.32.63.48.94C208.61,181.93,203.38,181.2,196.82,184.95Z"/><path class="cls-2" d="M193.41,181.12a29.66,29.66,0,0,0-7,9l-.53-.88a31,31,0,0,1,7-8.76,23,23,0,0,1,12.12-5.6l.62.79A22.36,22.36,0,0,0,193.41,181.12Z"/><path class="cls-2" d="M210.39,143.22a56.53,56.53,0,0,1-98,32.79"/><path class="cls-4" d="M160.18,160l10.65,31.82,1.23-.39,1.21-.43-10.65-31.82Z"/><path class="cls-4" d="M153.26,162.33l10.45,31.23c1.68-.29,3.37-.67,5-1.13L158.14,160.7Z"/><path class="cls-4" d="M164.65,158.53l10.62,31.73q2.42-1,4.71-2.14l-10.45-31.23Z"/><path class="cls-5" d="M224.27,91.36C210.11,49,164.12,26.27,121.54,40.52S55.93,100.63,70.1,143l13,38.8s23.57-1.89,78.89-20.41,75.29-31.19,75.29-31.19Z"/><circle class="cls-6" cx="142.84" cy="105.01" r="41.05" transform="translate(-25.94 50.76) rotate(-18.5)"/><path class="cls-2" d="M129.81,66.07a41.05,41.05,0,1,1-25.9,52,41.05,41.05,0,0,1,25.9-52M128.45,62a45.33,45.33,0,1,0,57.37,28.6A45.38,45.38,0,0,0,128.45,62Z"/><ellipse class="cls-2" cx="159.81" cy="154.87" rx="3.43" ry="3.41" transform="translate(-40.89 58.72) rotate(-18.5)"/><ellipse class="cls-2" cx="166.58" cy="150.81" rx="2.14" ry="2.13" transform="translate(-39.25 60.66) rotate(-18.5)"/><ellipse class="cls-2" cx="151.95" cy="155.71" rx="2.14" ry="2.13" transform="translate(-41.56 56.27) rotate(-18.5)"/><path class="cls-2" d="M162.88,98.85a20.64,20.64,0,1,0-28.64,25.09l3.89-12h0L142.87,126h.1l5.71-17.64h0l4.77,14.26,5.76-17.78h0l3,8.82A20.56,20.56,0,0,0,162.88,98.85Zm-14.49,2A6.25,6.25,0,1,1,152.33,93,6.25,6.25,0,0,1,148.39,100.88Z"/><path class="cls-2" d="M120.3,219.56a5.64,5.64,0,0,0-3-1.54c-.32-.09-.62-.22-.92-.34a7.89,7.89,0,0,0-1.81-7,5.81,5.81,0,0,0-3.11-1.4,6,6,0,0,1,.62-.88c.61-.7,2.6-2.09,1.79-3.22a1.7,1.7,0,0,0-1.25-.76h0a3.89,3.89,0,0,0-2.37.83h0c-.28.19-.54.4-.78.59l-.07.06-.31.27a6.55,6.55,0,0,0-1.51,2,3.89,3.89,0,0,1-2.38-3h0c-2.92-2.7-14.63.39-14.28,11,1.71,6.17,6.27,8.67,10.91,9.2a9.49,9.49,0,0,0,.39,1.06c.46,1,2.32,3,3.33,1.36.4-.62.06-1.61-.18-2.36a19.86,19.86,0,0,0,2.83-.43,8.42,8.42,0,0,0,2.1,2.19,4.58,4.58,0,0,0,3.19,1c1-.12,2.31-1.33,1.5-2.4-.66-.86-1.8-1.07-2.52-1.93l-.28-.36a6.48,6.48,0,0,0,1.54-1.13c.3-.32.57-.64.82-1,.38.12.78.23,1.17.31,1.18.27,3.18.63,4.21-.24A1.4,1.4,0,0,0,120.3,219.56Z"/><path class="cls-3" d="M107.06,207.89l.1.06Z"/><path class="cls-3" d="M109.09,206.19l.3-.26Z"/><path class="cls-3" d="M105.19,205.14h0a10.06,10.06,0,0,1,.66-4.71c3.25-9.71,12.75-19.18,12.75-19.18l-4.28-4S93.42,191,90.55,205.52a26.19,26.19,0,0,0,.35,10.58C90.56,205.52,102.27,202.44,105.19,205.14Z"/><path class="cls-3" d="M116.39,217.68a7.68,7.68,0,0,0,.11-2.91,7.68,7.68,0,0,1-.11,2.91c.3.12.6.25.92.34l.4.12-.4-.12C117,217.93,116.69,217.8,116.39,217.68Z"/><path class="cls-3" d="M106.67,207.63l.1.08Z"/><path class="cls-3" d="M100.41,225.09l.3.06Z"/><path class="cls-3" d="M114.54,221.4c-.25.32-.52.64-.82,1a5,5,0,0,1-.67.58,5,5,0,0,0,.67-.58C114,222,114.29,221.72,114.54,221.4Z"/><path class="cls-3" d="M105.74,206.64h0Z"/><path class="cls-3" d="M106.4,207.41l-.08-.08Z"/><path class="cls-3" d="M110.24,205.28h0c-.28.19-.55.4-.79.6C109.7,205.67,110,205.47,110.24,205.28Z"/><path class="cls-3" d="M113.52,207a3.54,3.54,0,0,0,.31-.44A3.54,3.54,0,0,1,113.52,207Z"/><path class="cls-3" d="M112.94,207.58a7.75,7.75,0,0,0,.58-.62A7.74,7.74,0,0,1,112.94,207.58Z"/><path class="cls-3" d="M120.3,219.56a1.18,1.18,0,0,1,.22.51A1.18,1.18,0,0,0,120.3,219.56Z"/><path class="cls-3" d="M113.95,206.29a1.11,1.11,0,0,0,.05-.89A1.11,1.11,0,0,1,113.95,206.29Z"/><path class="cls-3" d="M99.29,224.82l.18,0Z"/><path class="cls-3" d="M112.74,207.77l-.37.35Z"/><path class="cls-3" d="M110.26,205.26a3.89,3.89,0,0,1,2.37-.83,1.73,1.73,0,0,1,.33.07A3.4,3.4,0,0,0,110.26,205.26Z"/><path class="cls-3" d="M113.26,204.63a1.59,1.59,0,0,0-.29-.13A1.6,1.6,0,0,1,113.26,204.63Z"/><path class="cls-3" d="M113.55,204.83a1.72,1.72,0,0,0-.24-.18A1.71,1.71,0,0,1,113.55,204.83Z"/><path class="cls-3" d="M113.61,204.88a2.1,2.1,0,0,1,.27.31A2.14,2.14,0,0,0,113.61,204.88Z"/><path class="cls-3" d="M106,207l.05.06Z"/><path class="cls-3" d="M113.74,224.82c-.23-.13-.46-.27-.68-.42C113.28,224.55,113.51,224.68,113.74,224.82Z"/><path class="cls-3" d="M113.46,228.18h0a1.8,1.8,0,0,0,.39-.1,1.8,1.8,0,0,1-.39.1Z"/><path class="cls-3" d="M104.9,228.29a1.27,1.27,0,0,0,.65-.56,1.4,1.4,0,0,0,.18-.82,1.4,1.4,0,0,1-.18.82A1.27,1.27,0,0,1,104.9,228.29Z"/><path class="cls-3" d="M105.72,226.91a4.28,4.28,0,0,0-.17-.94A4.28,4.28,0,0,1,105.72,226.91Z"/><path class="cls-3" d="M113.74,224.82a4,4,0,0,1,1.24,1,1.2,1.2,0,0,1-.06,1.55,1.2,1.2,0,0,0,.06-1.55A4,4,0,0,0,113.74,224.82Z"/><path class="cls-3" d="M108.19,224.95a19.86,19.86,0,0,1-2.83.43A19.86,19.86,0,0,0,108.19,224.95Z"/><path class="cls-3" d="M120.41,220.83a1.39,1.39,0,0,0,.13-.51A1.39,1.39,0,0,1,120.41,220.83Z"/><path class="cls-3" d="M119.92,221.47a1.89,1.89,0,0,0,.36-.4A1.89,1.89,0,0,1,119.92,221.47Z"/><path class="cls-3" d="M119.92,221.47a2.24,2.24,0,0,1-.93.44A2.24,2.24,0,0,0,119.92,221.47Z"/><path class="cls-3" d="M91,216.49c0-.11-.07-.22-.11-.34C90.95,216.27,91,216.38,91,216.49Z"/><path class="cls-3" d="M93.67,221.35l.19.22Z"/><path class="cls-3" d="M104.9,228.29a1,1,0,0,1-.24.05A1,1,0,0,0,104.9,228.29Z"/><path class="cls-3" d="M95.66,223.11l.26.18Z"/><path class="cls-3" d="M96.87,223.85l.26.13Z"/><path class="cls-3" d="M94.68,222.36l.28.23Z"/><path class="cls-3" d="M97.94,224.34l.29.12Z"/><path class="cls-3" d="M92.21,219.31l-.14-.26Z"/><path class="cls-3" d="M93.07,220.62l-.25-.34Z"/><path class="cls-3" d="M91.57,218l-.18-.45Z"/><path class="cls-2" d="M95.9,201.31a9.81,9.81,0,0,0-5.29,4c0,.07,0,.15-.05.22-.17,1.24-.28,2.41-.33,3.52h0c.19-3.11,2.46-5.77,5.91-6.92a8.39,8.39,0,0,1,9,2.43,7.41,7.41,0,0,1,0-1.19A9.26,9.26,0,0,0,95.9,201.31Z"/><path class="cls-2" d="M95.9,196.1a8.08,8.08,0,0,0-1.71.81c-.47.74-.9,1.5-1.3,2.26a7.18,7.18,0,0,1,12.36,2.22c.07.19.11.39.16.59.11-.46.25-.95.42-1.47A8,8,0,0,0,95.9,196.1Z"/><path class="cls-2" d="M98.48,191.52l-.44.17q-.75.89-1.46,1.81a7.17,7.17,0,0,1,11,2.76q.24-.48.49-.95A8,8,0,0,0,98.48,191.52Z"/><path class="cls-2" d="M102,187.46l-1.06,1.08v0a7.17,7.17,0,0,1,8.84,3.89l.54-.84A8,8,0,0,0,102,187.46Z"/><path class="cls-2" d="M106,183.7l-1,.87a7.16,7.16,0,0,1,7.2,4.24l.58-.78A8,8,0,0,0,106,183.7Z"/><path class="cls-2" d="M110.38,180.13l-.92.72a7.15,7.15,0,0,1,5.78,4.12l.6-.71A8,8,0,0,0,110.38,180.13Z"/><rect class="cls-7" x="-7.99" y="-18.49" width="317.55" height="292" transform="translate(-32.67 54.44) rotate(-18.5)"/></svg>